<?xml version="1.0" encoding="UTF-8" standalone="no"?>
<!-- Created with Inkscape (http://www.inkscape.org/) -->

<svg
   width="210mm"
   height="8mm"
   viewBox="0 0 210 8"
   version="1.1"
   id="svg5"
   xmlns="http://www.w3.org/2000/svg"
   xmlns:svg="http://www.w3.org/2000/svg">
  <defs
     id="defs2" />
  <g
     id="layer1"
     transform="translate(1.0096401,-93.658368)">
    <path
       style="fill:#2f5d62;stroke:#ff936e;stroke-width:0"
       d="m 38.386024,354.16014 c 0.95109,-0.24785 2.270733,-0.23155 2.932542,0.0362 0.661809,0.26776 -0.116355,0.47054 -1.729253,0.45062 -1.612898,-0.0199 -2.154378,-0.239 -1.203289,-0.48684 z"
       id="path2174"
       transform="scale(0.26458333)" />
    <path
       style="fill:#2f5d62;stroke:#ff936e;stroke-width:0"
       d="M 168.24742,101.17236 C 152.7941,100.99022 118.1457,100.59769 91.250989,100.30009 64.356271,100.00249 32.929574,99.645753 21.41388,99.507353 9.8981876,99.368946 0.14192965,99.255026 -0.26669171,99.254196 l -0.74294789,-0.002 V 97.081678 94.91116 L 1.75953,95.02405 c 1.5230435,0.0621 49.088599,1.327041 105.70124,2.811015 56.61262,1.483971 104.5429,2.770975 106.51171,2.860025 2.80452,0.12683 3.57967,0.24016 3.57967,0.52335 0,0.44531 -8.23255,0.43753 -49.30473,-0.0466 z"
       id="path2213" />
  </g>
</svg>
